<svg id="visual" viewBox="0 0 900 600" width="900" height="600" xmlns="http://www.w3.org/2000/svg" xmlns:xlink="http://www.w3.org/1999/xlink" version="1.1"><rect x="0" y="0" width="900" height="600" fill="#ecf0f4"></rect><defs><linearGradient id="grad1_0" x1="33.3%" y1="100%" x2="100%" y2="0%"><stop offset="20%" stop-color="#ecf0f4" stop-opacity="1"></stop><stop offset="80%" stop-color="#ecf0f4" stop-opacity="1"></stop></linearGradient></defs><defs><linearGradient id="grad2_0" x1="0%" y1="100%" x2="66.7%" y2="0%"><stop offset="20%" stop-color="#ecf0f4" stop-opacity="1"></stop><stop offset="80%" stop-color="#ecf0f4" stop-opacity="1"></stop></linearGradient></defs><g transform="translate(900, 600)"><path d="M-486.7 0C-480 -68.9 -473.2 -137.8 -435.1 -180.2C-397.1 -222.7 -327.6 -238.6 -285.7 -285.7C-243.7 -332.8 -229.3 -411 -186.3 -449.7C-143.2 -488.4 -71.6 -487.6 0 -486.7L0 0Z" fill="#644fef"></path></g><g transform="translate(0, 0)"><path d="M486.7 0C456.1 52.8 425.5 105.6 407.4 168.8C389.4 231.9 383.9 305.5 344.2 344.2C304.5 382.9 230.7 386.7 167.6 404.7C104.6 422.6 52.3 454.7 0 486.7L0 0Z" fill="#644fef"></path></g></svg>