<svg id="visual" viewBox="0 0 900 600" width="900" height="600" xmlns="http://www.w3.org/2000/svg" xmlns:xlink="http://www.w3.org/1999/xlink" version="1.1"><rect x="0" y="0" width="900" height="600" fill="#FFFFFF"></rect><defs><linearGradient id="grad1_0" x1="33.3%" y1="0%" x2="100%" y2="100%"><stop offset="20%" stop-color="#ffffff" stop-opacity="1"></stop><stop offset="80%" stop-color="#ffffff" stop-opacity="1"></stop></linearGradient></defs><defs><linearGradient id="grad2_0" x1="0%" y1="0%" x2="66.7%" y2="100%"><stop offset="20%" stop-color="#ffffff" stop-opacity="1"></stop><stop offset="80%" stop-color="#ffffff" stop-opacity="1"></stop></linearGradient></defs><g transform="translate(900, 0)"><path d="M0 486.7C-67.8 485 -135.7 483.2 -186.3 449.7C-236.9 416.1 -270.3 350.8 -297.7 297.7C-325.1 244.6 -346.4 203.7 -376.9 156.1C-407.4 108.6 -447.1 54.3 -486.7 0L0 0Z" fill="#715DF2"></path></g><g transform="translate(0, 600)"><path d="M0 -486.7C45.9 -438.9 91.9 -391.1 155.4 -375.1C218.8 -359.1 299.8 -374.8 344.2 -344.2C388.5 -313.6 396.2 -236.5 413.9 -171.4C431.6 -106.3 459.2 -53.2 486.7 0L0 0Z" fill="#715DF2"></path></g></svg>