<svg id="visual" viewBox="0 0 900 600" width="900" height="600" xmlns="http://www.w3.org/2000/svg" xmlns:xlink="http://www.w3.org/1999/xlink" version="1.1"><rect x="0" y="0" width="900" height="600" fill="#FFFFFF"></rect><defs><linearGradient id="grad1_0" x1="33.3%" y1="100%" x2="100%" y2="0%"><stop offset="20%" stop-color="#ffffff" stop-opacity="1"></stop><stop offset="80%" stop-color="#ffffff" stop-opacity="1"></stop></linearGradient></defs><defs><linearGradient id="grad2_0" x1="0%" y1="100%" x2="66.7%" y2="0%"><stop offset="20%" stop-color="#ffffff" stop-opacity="1"></stop><stop offset="80%" stop-color="#ffffff" stop-opacity="1"></stop></linearGradient></defs><g transform="translate(900, 600)"><path d="M-486.7 0C-473.7 -64 -460.6 -128.1 -430.5 -178.3C-400.4 -228.6 -353.3 -265 -312.5 -312.5C-271.8 -360.1 -237.3 -418.8 -186.3 -449.7C-135.2 -480.6 -67.6 -483.7 0 -486.7L0 0Z" fill="#715DF2"></path></g><g transform="translate(0, 0)"><path d="M486.7 0C470.4 57.7 454.1 115.3 435.1 180.2C416.2 245.2 394.5 317.4 344.2 344.2C293.9 371 214.8 352.4 152.7 368.6C90.5 384.8 45.3 435.8 0 486.7L0 0Z" fill="#715DF2"></path></g></svg>